<svg xmlns="http://www.w3.org/2000/svg" viewBox="0 0 32 32" id="SameDay"><path fill="#C00" d="M13.67 5.9h4.7V1.2L20.53 3v2.9h5.42v23.77H6.09v-8.64H4.2l-.67-1.8H6.1v-1.8H1.02l-.67-1.81h5.74V13.8H2.35L1.68 12h4.4V5.88h5.42V3.01l2.17-1.81h4.7v2.17h-4.7v2.52Z"/><path fill="#840000" d="M7.19 21.03a.9.9 0 0 1 0 1.8h-1.1v-1.8zm0-3.6a.9.9 0 1 1 0 1.8h-1.1v-1.8zm0-3.62a.9.9 0 1 1 0 1.8h-1.1v-1.8z"/><path fill="#fff" d="M16 12.37a5.42 5.42 0 1 1 .03 10.83A5.42 5.42 0 0 1 16 12.37m0 1.8a3.61 3.61 0 1 0 .03 7.22 3.61 3.61 0 0 0-.02-7.22Zm.01 1.8a1.8 1.8 0 1 1 .01 3.62 1.8 1.8 0 0 1 0-3.61Z"/></svg>