<svg xmlns="http://www.w3.org/2000/svg" viewBox="0 0 32 32" id="TwoDayShipping"><path fill="#CEAF8C" d="M.8 24.29h18.82V5.47H.8z"/><path fill="#C00" d="M10.21 10.21a4.66 4.66 0 1 1 0 9.33 4.66 4.66 0 0 1 0-9.33m0 1.56a3.11 3.11 0 1 0 0 6.22 3.11 3.11 0 0 0 0-6.22m0 1.55a1.56 1.56 0 1 1 0 3.11 1.56 1.56 0 0 1 0-3.1Zm21.26 10.97v-3.44l-6.34-7.72h-5.5V24.3h11.84Z"/><path fill="#fff" d="M21.72 18.46v-3.23h2.41l2.65 3.23z"/><path fill="#333" d="M7.26 21.86a2.95 2.95 0 0 1 1.12 5.7 2.96 2.96 0 1 1-1.12-5.7m17.77 0a2.95 2.95 0 0 1 1.12 5.7 2.96 2.96 0 1 1-1.12-5.7"/></svg>