<svg xmlns="http://www.w3.org/2000/svg" viewBox="0 0 32 32" id="CircleOffer"><path fill="#C00" d="M24.23 7.8 2.8 6.3l.96 8.84c.15 1.41.3 1.82 1.55 2.02l8.1 1.26c4.2.71 5.86-.19 5.86-.19l-.95 2.67 3.08.29 1.13-3.21 2.84-8.1c.34-.98.9-1.44 2.05-1.33l.52.05.04-.46-3.75-.35Z"/><path fill="#BBB" d="M15.73 22.48 4.78 20.93c-1.4-.13-1.95.18-2.13 1.36a.3.3 0 0 0 .26.33l15.18 2.32a2.2 2.2 0 0 1 1.49.78l1.56 1.88 1.12-.93-1.03-1.23a2.6 2.6 0 0 1-.45-2.5l.62-1.75-3.08-.29c-.23.66-.8 1.74-2.6 1.59ZM29.62 8.79 2.8 6.3l-.09-.88a.32.32 0 0 1 .34-.35l27.56 2.2c1.12.1.14 1.61-.98 1.5Z"/><path fill="#333" d="M5.13 26.67a1.43 1.43 0 1 1 .26-2.85 1.43 1.43 0 0 1-.26 2.85m16.75 2.3a1.43 1.43 0 1 1 .26-2.85 1.43 1.43 0 0 1-.27 2.85Z"/><path fill="#fff" d="M16.7 12.98a1.15 1.15 0 0 1 1.23-1.04c.63.06 1.08.62 1.02 1.24a1.13 1.13 0 0 1-1.23 1.03 1.14 1.14 0 0 1-1.03-1.23Zm-1.08-.1a2.2 2.2 0 0 0 1.97 2.38 2.2 2.2 0 0 0 2.4-1.98 2.2 2.2 0 0 0-2-2.38 2.2 2.2 0 0 0-2.37 1.98m1.87 3.47a3.3 3.3 0 0 1-2.96-3.57A3.3 3.3 0 0 1 18.1 9.8a3.3 3.3 0 0 1 2.98 3.58 3.3 3.3 0 0 1-3.59 2.97"/></svg>