<svg xmlns="http://www.w3.org/2000/svg" viewBox="0 0 32 32" id="Ship"><path fill="#BA9874" d="M1.67 26h10.66V6H1.67z"/><path fill="#CEAF8C" d="M30.33 6v20h-18V6zM9 22v4H5v-4l.5.27L6 22l.5.27L7 22l.5.27L8 22l.5.27zM9 6v4l-.5-.27L8 10l-.5-.27L7 10l-.5-.27L6 10l-.5-.27L5 10V6z"/><path fill="#C00" d="M21.3 17.61a1.62 1.62 0 0 1 0-3.23c.88 0 1.62.73 1.62 1.62s-.74 1.61-1.61 1.61Zm.05-4.72A3.1 3.1 0 0 0 18.23 16a3.1 3.1 0 0 0 3.12 3.1 3.1 3.1 0 0 0 3.09-3.1 3.1 3.1 0 0 0-3.1-3.1ZM16.67 16a4.66 4.66 0 0 1 4.68-4.67A4.66 4.66 0 0 1 26 16a4.66 4.66 0 0 1-4.66 4.67A4.66 4.66 0 0 1 16.67 16"/></svg>