<svg fill="none" height="24" viewBox="0 0 24 24" width="24" xmlns="http://www.w3.org/2000/svg"><circle cx="12" cy="12" fill="#666666" r="12"></circle><path d="M18.0201 9.18155V10.8064C17.254 10.8067 16.5095 10.6565 15.8074 10.3603C15.356 10.1697 14.9354 9.92414 14.5507 9.62737L14.5622 14.6286C14.5574 15.7548 14.1118 16.8129 13.3054 17.6099C12.6492 18.2587 11.8176 18.6712 10.9163 18.8048C10.7045 18.8361 10.489 18.8522 10.271 18.8522C9.30621 18.8522 8.39023 18.5396 7.64093 17.963C7.49993 17.8544 7.36507 17.7367 7.23668 17.6099C6.36274 16.7461 5.91209 15.5755 5.98798 14.3439C6.04587 13.4065 6.4212 12.5124 7.04689 11.8117C7.8747 10.8844 9.03279 10.3697 10.271 10.3697C10.489 10.3697 10.7045 10.3861 10.9163 10.4175V11.0182V12.6894C10.7155 12.6232 10.5011 12.5867 10.2777 12.5867C9.14646 12.5867 8.23123 13.5097 8.24815 14.6418C8.25889 15.3662 8.65456 15.9994 9.23815 16.3484C9.51242 16.5125 9.82793 16.6141 10.1646 16.6326C10.4284 16.647 10.6818 16.6103 10.9163 16.5329C11.7246 16.2659 12.3077 15.5067 12.3077 14.6113L12.3103 11.2622V5.14781H14.548C14.5501 5.36953 14.5726 5.58586 14.6144 5.79548C14.7833 6.64397 15.2616 7.38009 15.9272 7.88194C16.5076 8.3197 17.2303 8.5792 18.0137 8.5792L18.0201 8.57869L18.0201 9.18155Z" fill="white"></path></svg>