<svg fill="none" height="24" viewBox="0 0 24 24" width="24" xmlns="http://www.w3.org/2000/svg"><circle cx="12" cy="12" fill="#666666" r="12"></circle><path clip-rule="evenodd" d="M18.1902 9.11027C17.9138 6.98128 16.6484 5.54907 14.673 4.76183C13.1571 4.158 11.6032 4.19809 10.0535 4.64333C8.94768 4.96121 8.00541 5.54942 7.26145 6.436C6.49621 7.34776 6.08006 8.40463 5.96759 9.58709C5.84662 10.8579 6.15208 12.0127 6.89816 13.0486C7.14118 13.386 7.44629 13.657 7.8156 13.8515C8.0643 13.982 8.131 13.9508 8.19769 13.6815C8.25978 13.4307 8.30803 13.1753 8.38785 12.9305C8.46874 12.6811 8.46129 12.4682 8.27149 12.2681C8.19557 12.1883 8.14803 12.0783 8.09623 11.9775C7.22455 10.2927 7.68469 8.09988 9.20844 6.92487C10.6201 5.83608 12.1992 5.67785 13.8372 6.32176C14.965 6.76487 15.7008 7.62449 15.9796 8.80162C16.3188 10.2356 16.1293 11.6281 15.395 12.9141C14.9068 13.7691 14.1898 14.3332 13.1613 14.3946C12.3993 14.4397 11.705 13.9788 11.5734 13.209C11.5255 12.9283 11.5769 12.6559 11.655 12.3877C11.8511 11.7097 12.0541 11.0335 12.2474 10.3545C12.3531 9.98337 12.4149 9.60518 12.3907 9.21564C12.3404 8.40356 11.6865 7.90795 10.8954 8.09456C10.3497 8.22334 9.99604 8.59195 9.76437 9.07763C9.36135 9.9227 9.40179 10.788 9.69909 11.6526C9.74237 11.7789 9.75124 11.8928 9.72109 12.0194C9.43585 13.215 9.1797 14.418 8.86289 15.6051C8.55637 16.7524 8.41978 17.9069 8.56275 19.0854C8.5844 19.2649 8.69047 19.5846 8.69047 19.5846L9.19141 19.6906C9.20631 19.6718 9.27975 19.5381 9.35106 19.3976C9.90557 18.3085 10.3508 17.5184 10.5793 16.4626C10.6875 15.9638 10.834 15.4738 10.9663 14.9807C10.9802 14.9289 10.972 14.8519 11.0348 14.8352C11.1054 14.8164 11.121 14.897 11.1512 14.9392C11.2963 15.1428 11.48 15.3035 11.6901 15.4362C12.2471 15.7889 12.8551 15.9191 13.5118 15.8818C14.6382 15.8176 15.6121 15.3983 16.4054 14.6075C17.933 13.0851 18.4606 11.1931 18.1902 9.11027Z" fill="white" fill-rule="evenodd"></path></svg>