<svg fill="none" height="24" viewBox="0 0 24 24" width="24" xmlns="http://www.w3.org/2000/svg"><circle cx="12" cy="12" fill="#666666" r="12"></circle><path clip-rule="evenodd" d="M14.4924 12.3947L10.9515 14.1065C10.6666 14.2441 10.3359 14.0366 10.3359 13.7201V10.375C10.3359 10.0621 10.6602 9.85451 10.9444 9.98578L14.4853 11.6191C14.6226 11.6827 14.7 11.8011 14.7237 11.9289C14.7386 11.9647 14.7386 12.0016 14.7305 12.0381C14.7209 12.1818 14.6436 12.3216 14.4924 12.3947ZM11.9964 5.95699C4.28325 5.95699 4.14844 6.64276 4.14844 11.9998C4.14844 17.3565 4.28325 18.0427 11.9964 18.0427C19.7091 18.0427 19.8439 17.3565 19.8439 11.9998C19.8439 6.64276 19.7091 5.95699 11.9964 5.95699Z" fill="white" fill-rule="evenodd"></path></svg>