<svg fill="none" height="24" viewBox="0 0 24 24" width="24" xmlns="http://www.w3.org/2000/svg"><circle cx="12" cy="12" fill="#666666" r="12"></circle><path clip-rule="evenodd" d="M12.0095 5.97486C11.6889 5.97486 11.3684 5.97296 11.0478 5.97106C10.3324 5.96681 9.61694 5.96257 8.90202 5.97947C7.28426 6.01743 6.28912 6.77523 5.99502 8.16842C5.93258 8.46394 5.8861 8.7694 5.88433 9.07096C5.88243 9.45973 5.87989 9.84854 5.87735 10.2374V10.2374V10.2374C5.86708 11.8101 5.8568 13.383 5.88894 14.9549C5.92868 16.9058 6.91494 17.9491 8.797 18.0183C10.9228 18.0964 13.0518 18.09 15.1776 18.0197C16.7453 17.9679 17.6773 17.2133 17.9767 15.8585C18.0303 15.6165 18.081 15.3678 18.0824 15.122C18.0853 14.5507 18.0955 13.9792 18.1057 13.4077C18.1353 11.7423 18.165 10.0767 18.0147 8.41498C17.8951 7.09275 17.0093 6.22923 15.692 6.04865C14.8777 5.93677 14.0601 5.95225 13.2426 5.96772C12.8314 5.97551 12.4202 5.98329 12.0095 5.97486ZM4.44556 8.52107L4.45941 8.44877C4.58716 7.7817 4.71484 7.11496 5.07847 6.52193C5.93737 5.11986 7.28089 4.58168 8.82947 4.54371C10.9414 4.49227 13.0566 4.49334 15.1685 4.54478C16.6025 4.57955 17.8786 5.05175 18.7521 6.29452C19.314 7.09488 19.5234 8.01091 19.5375 8.95779C19.5684 10.9878 19.5826 13.0192 19.5358 15.0485C19.4985 16.683 18.9302 18.0776 17.3997 18.9088C16.693 19.2923 15.9182 19.4591 15.1274 19.4683C13.042 19.4924 10.9553 19.5126 8.87098 19.4651C7.30679 19.4293 5.94766 18.9014 5.07847 17.4847C4.71493 16.8918 4.58722 16.225 4.4595 15.558L4.44556 15.4853V8.52107ZM14.4532 12.0093C14.4553 10.6683 13.3516 9.56989 11.9943 9.56279C10.6458 9.5557 9.52542 10.6594 9.52329 11.9972C9.52117 13.3383 10.6249 14.4366 11.9822 14.4437C13.3304 14.4508 14.4511 13.3471 14.4532 12.0093ZM15.9055 12.0285C15.8995 14.1354 14.1508 15.8671 12.0041 15.893C9.85063 15.9189 8.06435 14.1408 8.07038 11.9781C8.07676 9.85193 9.89142 8.07345 12.0133 8.1139C14.1902 8.15505 15.9119 9.88669 15.9055 12.0285ZM16.9664 8.02651C16.9696 7.51422 16.5297 7.08388 16.0103 7.09062C15.4768 7.09736 15.0539 7.51918 15.0631 8.03502C15.0723 8.54554 15.5215 8.96807 16.0391 8.95317C16.5425 8.93863 16.964 8.51787 16.9664 8.02651Z" fill="white" fill-rule="evenodd"></path></svg>