<svg xmlns="http://www.w3.org/2000/svg" viewBox="0 0 32 32" id="DriveUp"><path fill="#333" d="M4.6 24.49c.56.52 1.37.78 2.62.81h2.85v3.15h-.01c-.05.68-1.25 1.22-2.72 1.22s-2.67-.54-2.72-1.2l-.02-.02V24.5Zm22.81 0v3.96l-.01.01c-.06.67-1.25 1.21-2.72 1.21s-2.68-.54-2.72-1.21h-.01V25.3h2.56c1.42 0 2.3-.26 2.9-.82Z"/><path fill="#C00" d="M6.27 7.68c4.27-2.37 15.2-2.37 19.46 0l1.34 4.46h3.6v1c0 1.03-.83 1.85-1.85 1.85h-.44c1.53 3.66.67 9.5-.97 10.72H4.59C2.77 24.5 2.1 18.65 3.62 15h-.44a1.85 1.85 0 0 1-1.85-1.84v-1.01h3.6l1.34-4.46ZM5.8 4.74c4.58-2.54 15.84-2.53 20.4 0l-.23.42c-.39.69-1.21 1-1.96.73-4.24-1.47-11.8-1.46-16.02 0a1.6 1.6 0 0 1-1.96-.73z"/><path fill="#fff" d="M8.66 9.32C7 12.97 6.73 19.23 7.77 23.05h16.47c1.23-3.96.67-10.08-.9-13.73-2.84-1.33-11.94-1.37-14.68 0"/><path fill="#333" d="M23.33 21.9c.58-3.42.4-7.21-.43-10.47l-1.11-.14s-.51-1.61-2.35-1.75c-1.85-.13-2.64 1.4-2.64 1.4-.53-.02-1.1-.02-1.6 0 0 0-.65-1.55-2.61-1.4-1.82.14-2.37 1.75-2.37 1.75l-1.12.14c-.83 3.26-1 7.05-.42 10.46z"/><path fill="#840000" d="M5.39 17.04c.33-.2.75.06.72.44l-.02.4c-.05.95-.06 2.37.17 3.86a.62.62 0 0 1-.77.7c-2.03-.57-1.26-4.68-.1-5.4m20.5.44a.48.48 0 0 1 .73-.44c1.16.72 1.93 4.83-.1 5.4a.62.62 0 0 1-.78-.7c.27-1.71.22-3.35.15-4.26"/><path fill="#fff" d="M16 12.1a4.3 4.3 0 0 1 2.3.66l.17.1a4.34 4.34 0 1 1-4.94 0l.17-.1a4.3 4.3 0 0 1 2.3-.67Zm.03 1.45h-.06a2.88 2.88 0 1 0 .06 0M16 14.9a1.5 1.5 0 1 1 0 2.99 1.5 1.5 0 1 1 0-2.99"/></svg>