<svg xmlns="http://www.w3.org/2000/svg" viewBox="0 0 32 32" id="OrderPickup"><path fill="#C00" d="M18.67 3.83h-5.33v2.34h-2.33V3.83l2.33-2.33h5.33l2.34 2.33v2.34h5.49v24h-21v-24h13.17z"/><path fill="#fff" d="M15.99 8.03a4.67 4.67 0 0 1 4.68 4.65A4.67 4.67 0 0 1 16 17.36a4.66 4.66 0 0 1-4.68-4.65A4.67 4.67 0 0 1 16 8.03Zm0 1.55A3.11 3.11 0 1 0 16 15.8a3.11 3.11 0 0 0-.02-6.23Zm0 1.51a1.6 1.6 0 1 1 .01 3.2 1.6 1.6 0 0 1-1.6-1.6 1.6 1.6 0 0 1 1.6-1.6Z"/><path fill="#D6D6D6" d="M21.67 23.68v6.49h-5v-6.49zm-6.34 0v6.49h-5v-6.49zm.67-3.54c3.44 0 5.65 1.3 5.67 1.31v1.22H10.33v-1.2s2.25-1.33 5.67-1.33"/><path fill="#840000" d="M16 19.22c-3.66 0-5.67 1.34-5.67 1.34v.92s2.01-1.34 5.67-1.34c3.65 0 5.67 1.32 5.67 1.32v-.93s-2.02-1.31-5.67-1.31"/></svg>