<svg xmlns="http://www.w3.org/2000/svg" viewBox="0 0 32 32" id="Redcard"><path fill="#C00" d="M30 5H2a2 2 0 0 0-2 2v18c0 1.1.9 2 2 2h28a2 2 0 0 0 2-2V7a2 2 0 0 0-2-2"/><path fill="#666" fill-opacity=".6" fill-rule="evenodd" d="M2 5a2 2 0 0 0-2 2v18c0 1.1.9 2 2 2h28a2 2 0 0 0 2-2V7a2 2 0 0 0-2-2zm.25.75c-.83 0-1.5.67-1.5 1.5v17.5c0 .83.67 1.5 1.5 1.5h27.5c.83 0 1.5-.67 1.5-1.5V7.25c0-.83-.67-1.5-1.5-1.5z"/><path fill="#fff" d="M4.07 13.5c.68 0 1.33.26 1.81.73s.75 1.1.75 1.77c0 1.38-1.15 2.5-2.56 2.5S1.5 17.38 1.5 16s1.15-2.5 2.57-2.5m15.75.3c.97 0 1.76.56 1.87 1.51h-.92a.94.94 0 0 0-.94-.73c-.78 0-1.18.59-1.18 1.44 0 .79.38 1.4 1.18 1.4.54 0 .9-.34.98-.94h.92c-.1 1.06-.84 1.72-1.9 1.72-1.32 0-2.12-.95-2.12-2.18s.78-2.22 2.11-2.22m-2.34.1v4.2h-.82v-.4c-.2.33-.57.52-.96.49-.89 0-1.36-.7-1.4-1.51v-.13c0-.85.48-1.58 1.38-1.58.37-.01.72.16.93.46h.01v-1.54zm13.02 0v4.2h-.82v-.4c-.2.33-.57.52-.96.49-.93 0-1.4-.77-1.4-1.63v-.01c0-.85.48-1.58 1.39-1.58.36-.02.71.16.92.45h.01V13.9zm-17.91 1.08c.98 0 1.52.75 1.52 1.65v.15h-2.25q.03.77.76.77c.33 0 .62-.18.68-.4h.76q-.34 1.04-1.47 1.03c-.99 0-1.6-.66-1.6-1.6 0-.92.65-1.6 1.6-1.6m10.84-.02q1.37 0 1.36.87v1.47q-.02.24.16.24h.08v.54a1 1 0 0 1-.36.07q-.58.01-.67-.4c-.21.25-.57.42-1.1.42-.63 0-1.06-.33-1.06-.9h.01a.8.8 0 0 1 .27-.66c.18-.15.44-.23.87-.29l.39-.04c.39-.05.56-.12.56-.35 0-.35-.26-.4-.55-.4q-.53-.02-.58.45h-.85c.03-.66.6-1.02 1.47-1.02m3.68.02.19.03v.77l-.31-.03c-.63 0-.85.42-.85.98v1.37h-.86v-3.04h.81v.56h.02a1.1 1.1 0 0 1 1-.64M9.59 13.89c.77 0 1.27.52 1.27 1.16q0 .8-.68 1.05v.02c.5.13.6.58.63.96l.01.24c.02.4.06.63.17.77h-.95a3 3 0 0 1-.13-.73c-.04-.59-.14-.9-.74-.9h-.95v1.63h-.95v-4.2zm-5.52.44A1.7 1.7 0 0 0 2.35 16c0 .92.77 1.67 1.72 1.67s1.71-.75 1.71-1.67c0-.44-.18-.87-.5-1.18a1.7 1.7 0 0 0-1.21-.49m19.86 2.28q-.1.09-.41.13l-.1.01c-.45.06-.7.15-.7.48 0 .24.14.39.52.39q.7 0 .7-.69zm-8.02-1c-.5 0-.75.38-.75.97 0 .48.23.97.75.97.46 0 .7-.32.74-.87v-.11c0-.55-.22-.96-.74-.96m13.02 0c-.5 0-.75.38-.75.97 0 .48.23.97.75.97.46 0 .7-.32.74-.87v-.1c0-.56-.22-.97-.74-.97m-24.86-.47a1 1 0 0 1 .62.25.8.8 0 0 1 .26.61c0 .35-.22.66-.55.8a.9.9 0 0 1-.96-.2.8.8 0 0 1-.19-.93c.13-.28.4-.48.71-.52zm8.49.47a.7.7 0 0 0-.5.17.6.6 0 0 0-.2.47h1.39q-.12-.66-.7-.64Zm-3.3-1H8.22v1.19h1.04c.4 0 .65-.17.65-.6s-.24-.58-.65-.58Z"/></svg>