<svg xmlns="http://www.w3.org/2000/svg" viewBox="0 0 32 32" id="Registry"><path fill="#C00" d="M28.67 9.33v4.34h-1.34V30H4.67V13.67H3.33V9.33z"/><path fill="#333" fill-opacity=".25" d="M27.33 13.67v1.66H4.67v-1.66z"/><path fill="#840000" d="M17.89 3.35a4 4 0 0 1 3.65-1.3 3.3 3.3 0 0 1 2.57 2.08 4 4 0 0 1-.22 3.42 3.4 3.4 0 0 1-2.5 1.72q-.66.08-1.24.06h-.69l-2.65-.01h-1.62l-2.65.01h-.69q-.58.02-1.25-.06a3.4 3.4 0 0 1-2.49-1.72 4 4 0 0 1-.22-3.42 3.3 3.3 0 0 1 2.57-2.07 4 4 0 0 1 3.65 1.29A37 37 0 0 1 16 5.68a37 37 0 0 1 1.89-2.33m3.27.92a1.8 1.8 0 0 0-1.6.58 34 34 0 0 0-1.81 2.23h2.4q.52.02.94-.03c.34-.05.65-.28.85-.62.25-.44.28-.98.1-1.45a1.1 1.1 0 0 0-.88-.71m-8.72.58a1.8 1.8 0 0 0-1.6-.58 1.1 1.1 0 0 0-.87.7 1.7 1.7 0 0 0 .09 1.46c.12.2.38.55.85.62q.43.04.93.03h2.41a35 35 0 0 0-1.81-2.23"/><path fill="#fff" d="M16 17.67a4.67 4.67 0 0 1 4.67 4.66A4.67 4.67 0 0 1 16 27a4.67 4.67 0 0 1-4.67-4.67A4.67 4.67 0 0 1 16 17.67m0 1.55h-.18a3.11 3.11 0 0 0 .18 6.22h.18a3.11 3.11 0 0 0-.18-6.22m0 1.56a1.55 1.55 0 1 1 0 3.1 1.55 1.55 0 0 1 0-3.1"/></svg>